<svg width="48" height="48" viewBox="0 0 48 48" fill="none" xmlns="http://www.w3.org/2000/svg">
  <path d="M24 4L6 11v13c0 11.2 7.68 21.7 18 24 10.32-2.3 18-12.8 18-24V11L24 4z" fill="#1677ff"/>
  <path d="M24 4L6 11v13c0 11.2 7.68 21.7 18 24 10.32-2.3 18-12.8 18-24V11L24 4z" fill="url(#g)" opacity="0.15"/>
  <rect x="16" y="14" width="16" height="20" rx="2" fill="#fff"/>
  <path d="M19 19h10M19 23h10M19 27h6" stroke="#1677ff" stroke-width="1.8" stroke-linecap="round"/>
  <circle cx="30" cy="30" r="5" fill="#13c2c2"/>
  <path d="M27.8 30l1.8 1.8 2.8-2.8" stroke="#fff" stroke-width="1.6" stroke-linecap="round" stroke-linejoin="round"/>
  <defs>
    <linearGradient id="g" x1="24" y1="4" x2="24" y2="48" gradientUnits="userSpaceOnUse">
      <stop stop-color="#fff"/>
      <stop offset="1" stop-color="#fff" stop-opacity="0"/>
    </linearGradient>
  </defs>
</svg>
